<svg xmlns="http://www.w3.org/2000/svg" width="31.936" height="31.991" viewBox="0 0 8.45 8.464"><defs><clipPath id="a"><path fill="#fff" d="M0 0h36v36H0z"/></clipPath><clipPath id="b"><path fill="#fff" d="M0 0h36v36H0z"/></clipPath></defs><g fill="none"><g clip-path="url(#a)" fill="#000" transform="matrix(.26458 0 0 .26458 29.846 47.907)"><path d="M33 19a1 1 0 01-.71-.29L18 4.41 3.71 18.71A1 1 0 012.3 17.3l15-15a1 1 0 011.41 0l15 15A1 1 0 0133 19z"/><path d="M18 7.79L6 19.83V32a2 2 0 002 2h7V24h6v10h7a2 2 0 002-2V19.76z"/></g><g clip-path="url(#b)" fill="#000" transform="matrix(.26458 0 0 .26458 -.545 -.532)"><path d="M33 19a1 1 0 01-.71-.29L18 4.41 3.71 18.71A1 1 0 012.3 17.3l15-15a1 1 0 011.41 0l15 15A1 1 0 0133 19z"/><path d="M18 7.79L6 19.83V32a2 2 0 002 2h7V24h6v10h7a2 2 0 002-2V19.76z"/></g></g></svg>