<svg xmlns="http://www.w3.org/2000/svg" width="36" height="38.4" viewBox="0 0 9.525 10.16"><g fill="#000" fill-rule="evenodd" clip-rule="evenodd"><path d="M3.573 6.09h.56v.646h-.56zm1.192 0h.558v.646h-.558zm1.191 0h.559v.646h-.559V6.09z"/><path d="M.632 9.468c0 .381.268.692.6.692h7.66c.332 0 .6-.31.6-.692L8.338 5.384V3.377H7.16c0 .007.003.014.003.02 0 .678-.914.556-1.83.658h-.58c-.91-.102-1.803.02-1.803-.657 0-.008.004-.015.004-.021H1.799v1.356H0v1.993h.595V5.412h1.197zm1.732-2.721h.596V6.1h-.596l.01-.71h.623v.679h.559V5.39h.632v.679h.559V5.39h.632v.679h.559V5.39h.633v.679h.558V5.39h.633v.71h-.595v.647h.595v.71h-.624V6.78h-.57v.678h-.625V6.78h-.575v.646h.005v.032h-.62v-.678h-.58v.678h-.616V6.78h-.579v.678h-.614v-.71zm.006 1.378h5.385v.678H2.37zM8.947 1.341v.712h-.644L8.302 0l-6.5.027v2.026h-.635v-.712H.61v2.036h.558v-.712h7.78v.712h.578V1.34z"/></g></svg>