<svg width="36" height="36" viewBox="0 0 36 36" fill="none" xmlns="http://www.w3.org/2000/svg">
<path d="M32.6836 2.21992L33.5686 3.10492C34.7881 4.32592 34.6036 6.49042 33.1531 7.93942L14.9026 26.1899L8.98958 28.3529C8.24708 28.6259 7.52408 28.2719 7.37708 27.5654C7.3274 27.3091 7.35079 27.044 7.44458 26.8004L9.64958 20.8364L27.8491 2.63542C29.2996 1.18642 31.4641 1.00042 32.6836 2.22142V2.21992ZM14.1061 4.03492C14.3031 4.03492 14.4981 4.07371 14.6801 4.1491C14.8621 4.22448 15.0275 4.33497 15.1667 4.47426C15.306 4.61354 15.4165 4.7789 15.4919 4.96089C15.5673 5.14288 15.6061 5.33793 15.6061 5.53492C15.6061 5.7319 15.5673 5.92695 15.4919 6.10894C15.4165 6.29093 15.306 6.45629 15.1667 6.59558C15.0275 6.73486 14.8621 6.84535 14.6801 6.92074C14.4981 6.99612 14.3031 7.03492 14.1061 7.03492H8.10608C7.31043 7.03492 6.54737 7.35099 5.98476 7.9136C5.42215 8.4762 5.10608 9.23927 5.10608 10.0349V28.0349C5.10608 28.8306 5.42215 29.5936 5.98476 30.1562C6.54737 30.7188 7.31043 31.0349 8.10608 31.0349H26.1061C26.9017 31.0349 27.6648 30.7188 28.2274 30.1562C28.79 29.5936 29.1061 28.8306 29.1061 28.0349V22.0349C29.1061 21.6371 29.2641 21.2556 29.5454 20.9743C29.8267 20.693 30.2083 20.5349 30.6061 20.5349C31.0039 20.5349 31.3854 20.693 31.6667 20.9743C31.948 21.2556 32.1061 21.6371 32.1061 22.0349V28.0349C32.1061 29.6262 31.4739 31.1523 30.3487 32.2776C29.2235 33.4028 27.6974 34.0349 26.1061 34.0349H8.10608C6.51478 34.0349 4.98866 33.4028 3.86344 32.2776C2.73822 31.1523 2.10608 29.6262 2.10608 28.0349V10.0349C2.10608 8.44362 2.73822 6.91749 3.86344 5.79228C4.98866 4.66706 6.51478 4.03492 8.10608 4.03492H14.1061Z" fill="black"/>
</svg>
