<svg width="36" height="36" viewBox="0 0 36 36" fill="none" xmlns="http://www.w3.org/2000/svg">
<path d="M9 1.125C9 0.826631 8.88147 0.540483 8.6705 0.329505C8.45952 0.118526 8.17337 0 7.875 0C7.57663 0 7.29048 0.118526 7.0795 0.329505C6.86853 0.540483 6.75 0.826631 6.75 1.125V2.25H4.5C3.30653 2.25 2.16193 2.72411 1.31802 3.56802C0.474106 4.41193 0 5.55653 0 6.75L0 9H36V6.75C36 5.55653 35.5259 4.41193 34.682 3.56802C33.8381 2.72411 32.6935 2.25 31.5 2.25H29.25V1.125C29.25 0.826631 29.1315 0.540483 28.9205 0.329505C28.7095 0.118526 28.4234 0 28.125 0C27.8266 0 27.5405 0.118526 27.3295 0.329505C27.1185 0.540483 27 0.826631 27 1.125V2.25H9V1.125ZM36 15.75V11.25H0V22.5H11.25C11.8467 22.5 12.419 22.7371 12.841 23.159C13.2629 23.581 13.5 24.1533 13.5 24.75C13.5 25.3467 13.2629 25.919 12.841 26.341C12.419 26.7629 11.8467 27 11.25 27H0V31.5C0 32.6935 0.474106 33.8381 1.31802 34.682C2.16193 35.5259 3.30653 36 4.5 36H31.5C32.6935 36 33.8381 35.5259 34.682 34.682C35.5259 33.8381 36 32.6935 36 31.5V20.25H22.5C21.9033 20.25 21.331 20.0129 20.909 19.591C20.4871 19.169 20.25 18.5967 20.25 18C20.25 17.4033 20.4871 16.831 20.909 16.409C21.331 15.9871 21.9033 15.75 22.5 15.75H36Z" fill="black"/>
</svg>
