<svg xmlns="http://www.w3.org/2000/svg" width="33.597" height="36" viewBox="0 0 8.889 9.525"><path d="M4.287.042a.317.317 0 01.315 0L6.735 1.26l-2.29 1.493-2.29-1.494L4.286.041zM1.704 1.726l-.778.973L2.35 4.12l1.515-.988-2.16-1.408zM.594 3.268L.013 5.31a.317.317 0 00.022.229l.034.07 1.737-1.133-1.21-1.208zM.355 6.18l.87 1.741 2.684-1.341-1.645-1.646L.353 6.18zm1.409 2.182l2.552 1.135a.317.317 0 00.258 0l2.553-1.135-2.682-1.34zm5.9-.44l.872-1.743-1.91-1.245L4.982 6.58l2.683 1.342zm1.158-2.314l.035-.07a.317.317 0 00.021-.229l-.584-2.042-1.208 1.208zm-.858-2.91l-.779-.973-2.159 1.407 1.516.989 1.423-1.423zm-3.519.814L6.083 4.58 4.444 6.218 2.806 4.58l1.638-1.067z" fill="#000"/></svg>