<svg xmlns="http://www.w3.org/2000/svg" width="33.791" height="31.627" viewBox="0 0 8.941 8.368"><defs><clipPath id="a"><path fill="#fff" d="M0 0h36v36H0z"/></clipPath></defs><g clip-path="url(#a)" fill-rule="evenodd" clip-rule="evenodd" fill="#000" transform="matrix(.26458 0 0 .26458 -.584 0)"><path d="M19.103 2.249c-1.942 0-3.61-.572-4.32-2.249-.436.025-1.556.07-1.98.142.811 2.304 3.71 3.966 6.3 3.966s5.464-1.662 6.275-3.966C24.956.07 23.855.023 23.425 0c-.707 1.68-2.378 2.249-4.322 2.249z"/><path d="M28.368.612c-1.737 3.43-5.25 5.807-9.343 5.807-4.074 0-7.564-2.35-9.314-5.754C4.934 2.817 2.21 8.111 2.21 13.693v1.03h6.327v16.904h21.066V14.722H36v-1.029c0-5.64-2.766-10.976-7.632-13.08z"/></g></svg>