<svg xmlns="http://www.w3.org/2000/svg" width="29.333" height="24" viewBox="0 0 7.761 6.35"><g fill="#000"><path d="M4.643 2.61L2.879 1.352a.7.7 0 00-.819 0L.296 2.611A.704.704 0 000 3.186v2.811c0 .194.159.353.353.353h1.41V4.233h1.412V6.35h1.411a.354.354 0 00.353-.353V3.186c0-.23-.11-.441-.296-.575z"/><path d="M7.066 0H3.87a.694.694 0 00-.695.695l.032.032c.028.017.056.031.084.05l1.764 1.259c.268.19.459.472.544.786h.751v.706h-.706v.705h.706v.706h-.706V6.35h1.422c.385 0 .695-.31.695-.695V.695A.694.694 0 007.066 0zM6.35 2.117h-.706V1.41h.706z"/></g></svg>