<?xml version="1.0" encoding="UTF-8" standalone="no"?>
<svg
   xmlns:dc="http://purl.org/dc/elements/1.1/"
   xmlns:cc="http://creativecommons.org/ns#"
   xmlns:rdf="http://www.w3.org/1999/02/22-rdf-syntax-ns#"
   xmlns:svg="http://www.w3.org/2000/svg"
   xmlns="http://www.w3.org/2000/svg"
   xmlns:sodipodi="http://sodipodi.sourceforge.net/DTD/sodipodi-0.dtd"
   xmlns:inkscape="http://www.inkscape.org/namespaces/inkscape"
   width="13.582129mm"
   height="12.347046mm"
   viewBox="0 0 13.582129 12.347046"
   version="1.1"
   id="svg8"
   inkscape:version="1.0.2-2 (e86c870879, 2021-01-15)"
   sodipodi:docname="1.svg">
  <defs
     id="defs2" />
  <sodipodi:namedview
     id="base"
     pagecolor="#ffffff"
     bordercolor="#666666"
     borderopacity="1.0"
     inkscape:pageopacity="0.0"
     inkscape:pageshadow="2"
     inkscape:zoom="1.979899"
     inkscape:cx="131.65001"
     inkscape:cy="96.553469"
     inkscape:document-units="mm"
     inkscape:current-layer="layer1"
     inkscape:document-rotation="0"
     showgrid="false"
     fit-margin-top="0"
     fit-margin-left="0"
     fit-margin-right="0"
     fit-margin-bottom="0"
     inkscape:window-width="1710"
     inkscape:window-height="1030"
     inkscape:window-x="192"
     inkscape:window-y="0"
     inkscape:window-maximized="0" />
  <metadata
     id="metadata5">
    <rdf:RDF>
      <cc:Work
         rdf:about="">
        <dc:format>image/svg+xml</dc:format>
        <dc:type
           rdf:resource="http://purl.org/dc/dcmitype/StillImage" />
        <dc:title></dc:title>
      </cc:Work>
    </rdf:RDF>
  </metadata>
  <g
     inkscape:label="Слой 1"
     inkscape:groupmode="layer"
     id="layer1"
     transform="translate(-0.31640708,-0.25850169)">
    <g
       style="fill:none"
       id="g58"
       transform="matrix(0.26458333,0,0,0.26458333,0.22830086,0.08202461)">
      <path
         d="M 47,0.667 H 5 A 4.68,4.68 0 0 0 0.333,5.333 v 28 A 4.666,4.666 0 0 0 5,38 h 16.333 v 4.667 h -4.666 v 4.666 H 35.333 V 42.667 H 30.667 V 38 H 47 a 4.65,4.65 0 0 0 4.667,-4.667 v -28 A 4.667,4.667 0 0 0 47,0.667 Z m 0,32.666 H 5 v -28 h 42 z m -12.04,-18.2 -2.357,2.357 -4.83,-4.737 2.357,-2.38 c 0.467,-0.49 1.26,-0.513 1.82,0 l 3.01,2.917 c 0.49,0.49 0.513,1.283 0,1.843 z m -18.293,8.657 9.73,-9.777 4.83,4.854 -9.707,9.8 h -4.853 z"
         fill="#000000"
         id="path47" />
    </g>
  </g>
</svg>
