<svg xmlns="http://www.w3.org/2000/svg" width="46.91" height="48.673" viewBox="0 0 12.412 12.878">
	<g fill="none">
		<path d="M12.176 5.062L8.008 2.747a.463.463 0 00-.463 0L3.378 5.062a.463.463 0 00-.227.408v4.63a.463.463 0 00.241.403l4.167 2.315c.068.038.144.059.222.06a.486.486 0 00.227-.06l4.168-2.315a.463.463 0 00.236-.403V5.47a.463.463 0 00-.236-.408zm-4.858 6.566l-3.24-1.801V6.252l3.24 1.801zm.463-4.376L4.568 5.47l3.213-1.788 3.214 1.788zm3.705 2.575l-3.242 1.8V8.054l3.242-1.8zM4.167 0H0v4.172h.926V.926h3.241z" fill="#000"/>
	</g>
</svg>