<svg xmlns="http://www.w3.org/2000/svg" width="37.333" height="49.494" viewBox="0 0 9.878 13.095"><g fill="none"><path d="M2.504 6.187a2.472 2.472 0 002.47 2.469 2.472 2.472 0 002.47-2.47H6.207V4.953h1.235V3.717H6.208V2.482h1.235C7.443 1.114 6.341 0 4.987 0a.576.576 0 00-.13.015 2.473 2.473 0 00-2.353 2.467h2.47v1.235h-2.47v1.235h2.47v1.235z" fill="#000"/><path d="M1.235 6.922H0c0 2.513 1.89 4.59 4.322 4.896v1.277h1.234v-1.277a4.944 4.944 0 004.322-4.896H8.643a3.708 3.708 0 01-3.704 3.704 3.708 3.708 0 01-3.704-3.704z" fill="#000"/></g></svg>