<?xml version="1.0" encoding="UTF-8" standalone="no"?>
<svg
   xmlns:dc="http://purl.org/dc/elements/1.1/"
   xmlns:cc="http://creativecommons.org/ns#"
   xmlns:rdf="http://www.w3.org/1999/02/22-rdf-syntax-ns#"
   xmlns:svg="http://www.w3.org/2000/svg"
   xmlns="http://www.w3.org/2000/svg"
   xmlns:sodipodi="http://sodipodi.sourceforge.net/DTD/sodipodi-0.dtd"
   xmlns:inkscape="http://www.inkscape.org/namespaces/inkscape"
   width="11.112508mm"
   height="12.964583mm"
   viewBox="0 0 11.112508 12.964583"
   version="1.1"
   id="svg8"
   sodipodi:docname="5.svg"
   inkscape:version="1.0.2-2 (e86c870879, 2021-01-15)">
  <defs
     id="defs2" />
  <sodipodi:namedview
     id="base"
     pagecolor="#ffffff"
     bordercolor="#666666"
     borderopacity="1.0"
     inkscape:pageopacity="0.0"
     inkscape:pageshadow="2"
     inkscape:zoom="7.9195959"
     inkscape:cx="73.781811"
     inkscape:cy="44.277322"
     inkscape:document-units="mm"
     inkscape:current-layer="layer1"
     inkscape:document-rotation="0"
     showgrid="false"
     inkscape:window-width="1710"
     inkscape:window-height="1030"
     inkscape:window-x="160"
     inkscape:window-y="0"
     inkscape:window-maximized="0"
     fit-margin-top="0"
     fit-margin-left="0"
     fit-margin-right="0"
     fit-margin-bottom="0" />
  <metadata
     id="metadata5">
    <rdf:RDF>
      <cc:Work
         rdf:about="">
        <dc:format>image/svg+xml</dc:format>
        <dc:type
           rdf:resource="http://purl.org/dc/dcmitype/StillImage" />
        <dc:title></dc:title>
      </cc:Work>
    </rdf:RDF>
  </metadata>
  <g
     inkscape:label="Слой 1"
     inkscape:groupmode="layer"
     id="layer1"
     transform="translate(-0.01119258,-0.03762634)">
    <g
       style="fill:none"
       id="g21"
       transform="matrix(0.26458333,0,0,0.26458333,0.01120083,-0.05047991)">
      <path
         d="m 21,5 a 7,7 0 0 0 -7,7 H 28 A 7,7 0 0 0 21,5 Z m 16.333,7 A 4.667,4.667 0 0 1 42,16.667 v 28 a 4.667,4.667 0 0 1 -4.667,4.666 H 4.667 A 4.667,4.667 0 0 1 0,44.667 v -28 A 4.65,4.65 0 0 1 4.667,12 h 4.666 a 11.667,11.667 0 0 1 23.334,0 z M 14,42.333 31.5,30.667 14,21.333 Z"
         fill="#000000"
         id="path10" />
    </g>
  </g>
</svg>
