<svg xmlns="http://www.w3.org/2000/svg" width="49.964" height="50.682" viewBox="0 0 13.22 13.41"><g fill="none"><path d="M7.47 1.78a7.338 7.338 0 011.601 2.713H6.853V1.711h-.618v2.786H4.017a7.338 7.338 0 011.605-2.716c-.358.065-.709.168-1.045.308a8.116 8.116 0 00-1.198 2.408H1.992c-.11.217-.203.44-.28.67h1.494a7.976 7.976 0 00-.177 1.647c.001.606.07 1.209.206 1.799H1.778c.085.23.187.455.305.67h1.329a7.951 7.951 0 001.107 2.207c.345.148.705.257 1.074.325a7.371 7.371 0 01-1.518-2.531H6.24v2.61h.617v-2.61h2.157a7.367 7.367 0 01-1.523 2.53c.37-.07.732-.181 1.078-.332.48-.671.854-1.413 1.107-2.198h1.317c.117-.212.22-.432.305-.659H9.837c.135-.59.204-1.193.205-1.798a7.977 7.977 0 00-.177-1.647h1.482a2.94 2.94 0 00-.078-.201 3.066 3.066 0 01-1.428-.457h-.148c0-.045-.033-.087-.046-.132a3.078 3.078 0 01-1.26-2.313 5.107 5.107 0 00-.917-.296zM6.235 8.61H3.873a7.28 7.28 0 01-.037-3.458h2.4zm3.19-1.795A7.458 7.458 0 019.2 8.613H6.853V5.168h2.4c.117.54.175 1.093.172 1.646z" fill="#000"/><path d="M11.107 4.116a2.058 2.058 0 100-4.116 2.058 2.058 0 000 4.116z" fill="#000"/><path d="M12.857 4.64c-.25.114-.515.195-.786.238a5.783 5.783 0 11-3.54-3.54c.044-.27.124-.535.239-.785a6.61 6.61 0 104.087 4.087z" fill="#000"/></g></svg>