<svg xmlns="http://www.w3.org/2000/svg" width="56.565" height="56.214" viewBox="0 0 14.966 14.873"><g fill="none"><path d="M11.28 2.778a2.778 2.778 0 11-5.557 0 2.778 2.778 0 015.556 0zM2.778 5.57a2.778 2.778 0 110-5.556 2.778 2.778 0 010 5.556z" fill="#000"/><path d="M8.484 5.613h.463a1.852 1.852 0 011.836 1.61l2.88-1.28a.926.926 0 011.303.845v6.91a.926.926 0 01-1.302.846l-2.88-1.28a1.852 1.852 0 01-1.837 1.61H2.002A1.852 1.852 0 01.15 13.02V7.465a1.852 1.852 0 011.852-1.852z" fill="#000"/></g></svg>